<svg width="20" height="15" viewBox="0 0 21 20" fill="none" xmlns="http://www.w3.org/2000/svg">
    <path d="M19.9999 20H10.9999C10.3999 20 9.9999 19.6 9.9999 19C9.9999 18.4 10.3999 18 10.9999 18H19.9999C20.5999 18 20.9999 18.4 20.9999 19C20.9999 19.6 20.5999 20 19.9999 20ZM2.1999 20L6.1999 19C6.3999 19 6.4999 18.9 6.6999 18.7L19.1999 6.2C19.4999 5.9 19.6999 5.6 19.8999 5.2C19.9999 4.8 20.0999 4.4 20.0999 4C20.0999 3.6 19.9999 3.2 19.8999 2.8C19.7999 2.4 19.4999 2.1 19.1999 1.8C18.8999 1.5 18.5999 1.3 18.1999 1.1C17.0999 0.599998 15.6999 0.899998 14.7999 1.8L2.2999 14.3C2.1999 14.4 2.0999 14.6 1.9999 14.8L0.999902 18.8C0.899902 19.1 0.999902 19.5 1.2999 19.7C1.4999 19.9 1.6999 20 1.9999 20C2.0999 20 2.1999 20 2.1999 20ZM16.1999 3.2C16.4999 2.9 16.9999 2.8 17.3999 3C17.4999 3.1 17.6999 3.1 17.7999 3.2C17.8999 3.3 17.9999 3.4 17.9999 3.6C18.0999 3.7 18.0999 3.9 18.0999 4C18.0999 4.1 18.0999 4.3 17.9999 4.4C17.8999 4.5 17.8999 4.7 17.7999 4.8L5.4999 17.1L3.3999 17.6L3.8999 15.5L16.1999 3.2Z" fill="#222222"/>
</svg>
